<svg id="Слой_1" data-name="Слой 1" xmlns="http://www.w3.org/2000/svg" width="32" height="32" viewBox="0 0 32 32"><defs><style>.cls-1{fill:#e07153;}.cls-2{fill:#1b1b1b;}</style></defs><title>закуски</title><path class="cls-1" d="M16.56,1.43,26,3.8A2.13,2.13,0,0,1,25.51,8H16a10.13,10.13,0,0,0-5.72,1.76c0,.19,0,.38,0,.57a6.53,6.53,0,0,0,9.06,6A8.58,8.58,0,0,0,24,9.45h1.54a3.59,3.59,0,0,0,.87-7.06L16.91,0a.73.73,0,0,0-.35,1.41Zm1.63,10.93a.73.73,0,1,1,.73-.73A.73.73,0,0,1,18.19,12.36Z"/><path class="cls-2" d="M16,6.54h7.42a13.81,13.81,0,1,0-.71,23.71l-1.16-.43H16A11.64,11.64,0,1,1,16,6.54Z"/><path class="cls-1" d="M8.83,11a10.15,10.15,0,0,0-3,7.22c0,.27,0,.54,0,.8a5.07,5.07,0,0,0,7.12.86l.19-.15a3.06,3.06,0,0,1,1.12-1.77A8,8,0,0,1,8.83,11Z"/><path class="cls-1" d="M15.19,23.24a3.05,3.05,0,0,1-1.9-1.85,6.49,6.49,0,0,1-7-.05A10.2,10.2,0,0,0,13.19,28a4,4,0,0,0,3.53-4c0-.08,0-.16,0-.25Z"/><path class="cls-1" d="M16,28.36h5.82a2.06,2.06,0,0,0,0-2.91l-3.67-1.22A5.44,5.44,0,0,1,16,28.36Z"/><path class="cls-1" d="M27.64,25.42a1.49,1.49,0,0,0-2-1.39l-2.38.89a3.51,3.51,0,0,1,0,4l2.38.89a1.49,1.49,0,1,0,.52-2.88,1.49,1.49,0,0,0,1.49-1.49Z"/><path class="cls-2" d="M25.51,10.91h-.3a10.06,10.06,0,0,1-9.08,7.82H16a1.61,1.61,0,0,0-.4,3.12l6.15,2,3.32-1.25a2.93,2.93,0,0,1,3.49,1.15,13.65,13.65,0,0,0-1.15-13.3A5,5,0,0,1,25.51,10.91Z"/></svg>